<svg xmlns="http://www.w3.org/2000/svg" xmlns:xlink="http://www.w3.org/1999/xlink" width="40" zoomAndPan="magnify" viewBox="0 0 30 30.000001" height="40" preserveAspectRatio="xMidYMid meet" version="1.0"><defs><clipPath id="6852de78e7"><path d="M 6.296875 5.675781 L 23.90625 5.675781 L 23.90625 26.128906 L 6.296875 26.128906 Z M 6.296875 5.675781 " clip-rule="nonzero"/></clipPath><clipPath id="075a44bae4"><path d="M 5.425781 1.453125 L 24.296875 1.453125 L 24.296875 27.582031 L 5.425781 27.582031 Z M 5.425781 1.453125 " clip-rule="nonzero"/></clipPath><clipPath id="94a3891548"><path d="M 8.789062 10.183594 L 21.417969 10.183594 L 21.417969 23.539062 L 8.789062 23.539062 Z M 8.789062 10.183594 " clip-rule="nonzero"/></clipPath><clipPath id="9d8ad76031"><path d="M 8.113281 10.183594 L 21.902344 10.183594 L 21.902344 21.796875 L 8.113281 21.796875 Z M 8.113281 10.183594 " clip-rule="nonzero"/></clipPath></defs><g clip-path="url(#6852de78e7)"><path fill="#ffffff" d="M 6.296875 5.675781 L 23.90625 5.675781 L 23.90625 26.105469 L 6.296875 26.105469 Z M 6.296875 5.675781 " fill-opacity="1" fill-rule="nonzero"/></g><g clip-path="url(#075a44bae4)"><path fill="#000000" d="M 23.441406 4.945312 L 20.867188 4.945312 C 20.867188 4.464844 20.480469 4.074219 20.007812 4.074219 L 18.171875 4.074219 C 17.789062 2.578125 16.457031 1.464844 14.863281 1.464844 C 13.265625 1.464844 11.9375 2.578125 11.550781 4.074219 L 9.714844 4.074219 C 9.246094 4.074219 8.859375 4.464844 8.859375 4.945312 L 6.285156 4.945312 C 5.8125 4.945312 5.425781 5.335938 5.425781 5.816406 L 5.425781 26.699219 C 5.425781 27.175781 5.8125 27.566406 6.285156 27.566406 L 23.441406 27.566406 C 23.914062 27.566406 24.296875 27.175781 24.296875 26.699219 L 24.296875 5.816406 C 24.296875 5.335938 23.914062 4.945312 23.441406 4.945312 Z M 14.863281 3.203125 C 15.496094 3.203125 16.039062 3.5625 16.339844 4.074219 L 13.386719 4.074219 C 13.6875 3.5625 14.238281 3.203125 14.863281 3.203125 Z M 19.152344 5.816406 L 19.152344 6.683594 L 10.574219 6.683594 L 10.574219 5.816406 Z M 21.726562 25.828125 L 8 25.828125 C 7.527344 25.828125 7.144531 25.4375 7.144531 24.957031 L 7.144531 7.554688 C 7.144531 7.078125 7.527344 6.683594 8 6.683594 L 8.859375 6.683594 L 8.859375 7.554688 C 8.859375 8.035156 9.246094 8.425781 9.714844 8.425781 L 20.007812 8.425781 C 20.480469 8.425781 20.867188 8.035156 20.867188 7.554688 L 20.867188 6.683594 L 21.726562 6.683594 C 22.195312 6.683594 22.582031 7.078125 22.582031 7.554688 L 22.582031 24.957031 C 22.582031 25.4375 22.195312 25.828125 21.726562 25.828125 Z M 12.871094 11.3125 C 13.207031 11.652344 13.207031 12.203125 12.871094 12.539062 L 11.175781 14.265625 C 11.003906 14.4375 10.789062 14.515625 10.566406 14.515625 C 10.34375 14.515625 10.128906 14.429688 9.957031 14.265625 L 9.097656 13.394531 C 8.765625 13.054688 8.765625 12.507812 9.097656 12.167969 C 9.433594 11.828125 9.972656 11.828125 10.308594 12.167969 L 10.558594 12.417969 L 11.644531 11.3125 C 11.980469 10.976562 12.519531 10.976562 12.855469 11.3125 Z M 20.867188 12.777344 C 20.867188 13.253906 20.480469 13.644531 20.007812 13.644531 L 15.71875 13.644531 C 15.25 13.644531 14.863281 13.253906 14.863281 12.777344 C 14.863281 12.296875 15.25 11.90625 15.71875 11.90625 L 20.007812 11.90625 C 20.480469 11.90625 20.867188 12.296875 20.867188 12.777344 Z M 12.871094 15.664062 C 13.207031 16.003906 13.207031 16.550781 12.871094 16.890625 L 11.175781 18.613281 C 11.003906 18.789062 10.789062 18.867188 10.566406 18.867188 C 10.34375 18.867188 10.128906 18.78125 9.957031 18.613281 L 9.097656 17.746094 C 8.765625 17.40625 8.765625 16.855469 9.097656 16.515625 C 9.433594 16.179688 9.972656 16.179688 10.308594 16.515625 L 10.558594 16.769531 L 11.644531 15.664062 C 11.980469 15.324219 12.519531 15.324219 12.855469 15.664062 Z M 20.867188 17.125 C 20.867188 17.605469 20.480469 17.996094 20.007812 17.996094 L 15.71875 17.996094 C 15.25 17.996094 14.863281 17.605469 14.863281 17.125 C 14.863281 16.648438 15.25 16.257812 15.71875 16.257812 L 20.007812 16.257812 C 20.480469 16.257812 20.867188 16.648438 20.867188 17.125 Z M 12.871094 20.015625 C 13.207031 20.355469 13.207031 20.902344 12.871094 21.242188 L 11.175781 22.964844 C 11.003906 23.140625 10.789062 23.21875 10.566406 23.21875 C 10.34375 23.21875 10.128906 23.128906 9.957031 22.964844 L 9.097656 22.09375 C 8.765625 21.753906 8.765625 21.207031 9.097656 20.867188 C 9.433594 20.527344 9.972656 20.527344 10.308594 20.867188 L 10.558594 21.121094 L 11.644531 20.015625 C 11.980469 19.675781 12.519531 19.675781 12.855469 20.015625 Z M 20.867188 21.476562 C 20.867188 21.957031 20.480469 22.347656 20.007812 22.347656 L 15.71875 22.347656 C 15.25 22.347656 14.863281 21.957031 14.863281 21.476562 C 14.863281 21 15.25 20.605469 15.71875 20.605469 L 20.007812 20.605469 C 20.480469 20.605469 20.867188 21 20.867188 21.476562 Z M 20.867188 21.476562 " fill-opacity="1" fill-rule="nonzero"/></g><g clip-path="url(#94a3891548)"><path fill="#ffffff" d="M 8.789062 10.183594 L 21.417969 10.183594 L 21.417969 23.554688 L 8.789062 23.554688 Z M 8.789062 10.183594 " fill-opacity="1" fill-rule="nonzero"/></g><g clip-path="url(#9d8ad76031)"><path fill="#000000" d="M 10.621094 16.75 L 10.621094 19.332031 L 15.007812 21.796875 L 19.394531 19.332031 L 19.394531 16.75 L 15.007812 19.214844 Z M 15.007812 10.183594 L 8.113281 14.054688 L 15.007812 17.925781 L 20.648438 14.757812 L 20.648438 19.214844 L 21.902344 19.214844 L 21.902344 14.054688 Z M 15.007812 10.183594 " fill-opacity="1" fill-rule="nonzero"/></g></svg>