<svg xmlns="http://www.w3.org/2000/svg" xmlns:xlink="http://www.w3.org/1999/xlink" width="40" zoomAndPan="magnify" viewBox="0 0 30 30.000001" height="40" preserveAspectRatio="xMidYMid meet" version="1.0"><defs><clipPath id="d2e6687f53"><path d="M 6.296875 5.675781 L 23.90625 5.675781 L 23.90625 26.128906 L 6.296875 26.128906 Z M 6.296875 5.675781 " clip-rule="nonzero"/></clipPath><clipPath id="0ba0510115"><path d="M 5.425781 1.453125 L 24.296875 1.453125 L 24.296875 27.582031 L 5.425781 27.582031 Z M 5.425781 1.453125 " clip-rule="nonzero"/></clipPath><clipPath id="964b3fa29b"><path d="M 8.789062 10.183594 L 21.417969 10.183594 L 21.417969 23.539062 L 8.789062 23.539062 Z M 8.789062 10.183594 " clip-rule="nonzero"/></clipPath><clipPath id="36b2dceb9d"><path d="M 8.113281 10.183594 L 21.902344 10.183594 L 21.902344 21.796875 L 8.113281 21.796875 Z M 8.113281 10.183594 " clip-rule="nonzero"/></clipPath></defs><g clip-path="url(#d2e6687f53)"><path fill="#ffffff" d="M 6.296875 5.675781 L 23.90625 5.675781 L 23.90625 26.105469 L 6.296875 26.105469 Z M 6.296875 5.675781 " fill-opacity="1" fill-rule="nonzero"/></g><g clip-path="url(#0ba0510115)"><path fill="#2563eb" d="M 23.699219 4.945312 L 21.089844 4.945312 C 21.089844 4.464844 20.699219 4.074219 20.21875 4.074219 L 18.359375 4.074219 C 17.964844 2.578125 16.617188 1.464844 15 1.464844 C 13.378906 1.464844 12.03125 2.578125 11.640625 4.074219 L 9.777344 4.074219 C 9.300781 4.074219 8.90625 4.464844 8.90625 4.945312 L 6.296875 4.945312 C 5.820312 4.945312 5.425781 5.335938 5.425781 5.816406 L 5.425781 26.699219 C 5.425781 27.175781 5.820312 27.566406 6.296875 27.566406 L 23.699219 27.566406 C 24.179688 27.566406 24.570312 27.175781 24.570312 26.699219 L 24.570312 5.816406 C 24.570312 5.335938 24.179688 4.945312 23.699219 4.945312 Z M 15 3.203125 C 15.644531 3.203125 16.191406 3.5625 16.496094 4.074219 L 13.503906 4.074219 C 13.808594 3.5625 14.363281 3.203125 15 3.203125 Z M 19.347656 5.816406 L 19.347656 6.683594 L 10.648438 6.683594 L 10.648438 5.816406 Z M 21.960938 25.828125 L 8.039062 25.828125 C 7.558594 25.828125 7.167969 25.4375 7.167969 24.957031 L 7.167969 7.554688 C 7.167969 7.078125 7.558594 6.683594 8.039062 6.683594 L 8.90625 6.683594 L 8.90625 7.554688 C 8.90625 8.035156 9.300781 8.425781 9.777344 8.425781 L 20.21875 8.425781 C 20.699219 8.425781 21.089844 8.035156 21.089844 7.554688 L 21.089844 6.683594 L 21.960938 6.683594 C 22.4375 6.683594 22.832031 7.078125 22.832031 7.554688 L 22.832031 24.957031 C 22.832031 25.4375 22.4375 25.828125 21.960938 25.828125 Z M 12.980469 11.3125 C 13.320312 11.652344 13.320312 12.203125 12.980469 12.539062 L 11.257812 14.265625 C 11.082031 14.4375 10.867188 14.515625 10.640625 14.515625 C 10.414062 14.515625 10.195312 14.429688 10.023438 14.265625 L 9.152344 13.394531 C 8.8125 13.054688 8.8125 12.507812 9.152344 12.167969 C 9.492188 11.828125 10.039062 11.828125 10.378906 12.167969 L 10.628906 12.417969 L 11.734375 11.3125 C 12.074219 10.976562 12.625 10.976562 12.960938 11.3125 Z M 21.089844 12.777344 C 21.089844 13.253906 20.699219 13.644531 20.21875 13.644531 L 15.867188 13.644531 C 15.390625 13.644531 15 13.253906 15 12.777344 C 15 12.296875 15.390625 11.90625 15.867188 11.90625 L 20.21875 11.90625 C 20.699219 11.90625 21.089844 12.296875 21.089844 12.777344 Z M 12.980469 15.664062 C 13.320312 16.003906 13.320312 16.550781 12.980469 16.890625 L 11.257812 18.613281 C 11.082031 18.789062 10.867188 18.867188 10.640625 18.867188 C 10.414062 18.867188 10.195312 18.78125 10.023438 18.613281 L 9.152344 17.746094 C 8.8125 17.40625 8.8125 16.855469 9.152344 16.515625 C 9.492188 16.179688 10.039062 16.179688 10.378906 16.515625 L 10.628906 16.769531 L 11.734375 15.664062 C 12.074219 15.324219 12.625 15.324219 12.960938 15.664062 Z M 21.089844 17.125 C 21.089844 17.605469 20.699219 17.996094 20.21875 17.996094 L 15.867188 17.996094 C 15.390625 17.996094 15 17.605469 15 17.125 C 15 16.648438 15.390625 16.257812 15.867188 16.257812 L 20.21875 16.257812 C 20.699219 16.257812 21.089844 16.648438 21.089844 17.125 Z M 12.980469 20.015625 C 13.320312 20.355469 13.320312 20.902344 12.980469 21.242188 L 11.257812 22.964844 C 11.082031 23.140625 10.867188 23.21875 10.640625 23.21875 C 10.414062 23.21875 10.195312 23.128906 10.023438 22.964844 L 9.152344 22.09375 C 8.8125 21.753906 8.8125 21.207031 9.152344 20.867188 C 9.492188 20.527344 10.039062 20.527344 10.378906 20.867188 L 10.628906 21.121094 L 11.734375 20.015625 C 12.074219 19.675781 12.625 19.675781 12.960938 20.015625 Z M 21.089844 21.476562 C 21.089844 21.957031 20.699219 22.347656 20.21875 22.347656 L 15.867188 22.347656 C 15.390625 22.347656 15 21.957031 15 21.476562 C 15 21 15.390625 20.605469 15.867188 20.605469 L 20.21875 20.605469 C 20.699219 20.605469 21.089844 21 21.089844 21.476562 Z M 21.089844 21.476562 " fill-opacity="1" fill-rule="nonzero"/></g><g clip-path="url(#964b3fa29b)"><path fill="#ffffff" d="M 8.789062 10.183594 L 21.417969 10.183594 L 21.417969 23.554688 L 8.789062 23.554688 Z M 8.789062 10.183594 " fill-opacity="1" fill-rule="nonzero"/></g><g clip-path="url(#36b2dceb9d)"><path fill="#2563eb" d="M 10.652344 16.648438 L 10.652344 19.1875 L 15.097656 21.613281 L 19.542969 19.1875 L 19.542969 16.648438 L 15.097656 19.074219 Z M 15.097656 10.183594 L 8.113281 13.996094 L 15.097656 17.804688 L 20.8125 14.6875 L 20.8125 19.074219 L 22.085938 19.074219 L 22.085938 13.996094 Z M 15.097656 10.183594 " fill-opacity="1" fill-rule="nonzero"/></g></svg>